<svg xmlns="http://www.w3.org/2000/svg" viewBox="0 0 980 300" font-family="Segoe UI, Helvetica, Arial, sans-serif">
  <title>Mantle OS v3 — the organism lifecycle</title>
  <desc>Primer seals into the Body; the Body lives and is certified with no LLM; only then
is a bounded MIND fused; skills calcify; capacity metabolizes; rebirth is chosen and the
ancestor seals with a fingerprint.</desc>
  <rect width="980" height="300" fill="#f8fafc"/>
  <text x="490" y="34" text-anchor="middle" font-size="22" font-weight="bold" fill="#0f172a">The v3 Lifecycle — Body first, audit first, mind later</text>
  <defs>
    <marker id="a" viewBox="0 0 10 10" refX="9" refY="5" markerWidth="7" markerHeight="7" orient="auto">
      <path d="M 0 0 L 10 5 L 0 10 z" fill="#334155"/>
    </marker>
  </defs>
  <g font-size="11.5" text-anchor="middle">
    <rect x="20" y="70" width="120" height="74" rx="10" fill="#e0e7ff" stroke="#4338ca"/>
    <text x="80" y="96" font-weight="bold" fill="#312e81">BORN</text>
    <text x="80" y="114" fill="#312e81">Primer seals into</text>
    <text x="80" y="128" fill="#312e81">the Body, not the cube</text>
    <line x1="140" y1="107" x2="170" y2="107" stroke="#334155" stroke-width="2" marker-end="url(#a)"/>
    <rect x="172" y="70" width="130" height="74" rx="10" fill="#dcfce7" stroke="#15803d"/>
    <text x="237" y="96" font-weight="bold" fill="#14532d">LIVES (no LLM)</text>
    <text x="237" y="114" fill="#14532d">senses · reflexes · acts</text>
    <text x="237" y="128" fill="#14532d">remembers · protects</text>
    <line x1="302" y1="107" x2="332" y2="107" stroke="#334155" stroke-width="2" marker-end="url(#a)"/>
    <rect x="334" y="70" width="130" height="74" rx="10" fill="#fef9c3" stroke="#a16207"/>
    <text x="399" y="96" font-weight="bold" fill="#713f12">STAGE-1 GATE</text>
    <text x="399" y="114" fill="#713f12">deterministic audit:</text>
    <text x="399" y="128" fill="#713f12">the Zombie Body certified</text>
    <line x1="464" y1="107" x2="494" y2="107" stroke="#334155" stroke-width="2" marker-end="url(#a)"/>
    <rect x="496" y="70" width="130" height="74" rx="10" fill="#e2e8f0" stroke="#475569"/>
    <text x="561" y="96" font-weight="bold" fill="#1e293b">MIND FUSES</text>
    <text x="561" y="114" fill="#1e293b">bounded: thoughts+brain;</text>
    <text x="561" y="128" fill="#1e293b">proposes, Body applies</text>
    <line x1="626" y1="107" x2="656" y2="107" stroke="#334155" stroke-width="2" marker-end="url(#a)"/>
    <rect x="658" y="70" width="130" height="74" rx="10" fill="#ffedd5" stroke="#c2410c"/>
    <text x="723" y="96" font-weight="bold" fill="#7c2d12">STAGE-2 GATE</text>
    <text x="723" y="114" fill="#7c2d12">containment rows +</text>
    <text x="723" y="128" fill="#7c2d12">FULL Stage-1 regression</text>
    <line x1="788" y1="107" x2="818" y2="107" stroke="#334155" stroke-width="2" marker-end="url(#a)"/>
    <rect x="820" y="70" width="140" height="74" rx="10" fill="#f3e8ff" stroke="#7e22ce"/>
    <text x="890" y="96" font-weight="bold" fill="#581c87">GROWS</text>
    <text x="890" y="114" fill="#581c87">skills trial → gates →</text>
    <text x="890" y="128" fill="#581c87">calcify into reflexes</text>
  </g>
  <g font-size="11.5" text-anchor="middle">
    <rect x="172" y="190" width="240" height="74" rx="10" fill="#cffafe" stroke="#0e7490"/>
    <text x="292" y="214" font-weight="bold" fill="#164e63">METABOLIZES (homeostasis)</text>
    <text x="292" y="232" fill="#164e63">pressure 0.75 / 0.90 → compact + dedupe.</text>
    <text x="292" y="246" fill="#164e63">Capacity NEVER triggers rebirth.</text>
    <rect x="496" y="190" width="290" height="74" rx="10" fill="#fee2e2" stroke="#b91c1c"/>
    <text x="641" y="214" font-weight="bold" fill="#7f1d1d">REBIRTH (always chosen, never forced)</text>
    <text x="641" y="232" fill="#7f1d1d">old Prime seals + fingerprints as read-only ancestry;</text>
    <text x="641" y="246" fill="#7f1d1d">&lt;gen0.facts.2&gt; stays addressable forever</text>
    <line x1="292" y1="190" x2="280" y2="144" stroke="#0e7490" stroke-width="2" marker-end="url(#a)"/>
    <line x1="641" y1="190" x2="700" y2="144" stroke="#b91c1c" stroke-width="2" marker-end="url(#a)"/>
  </g>
  <text x="490" y="288" text-anchor="middle" font-size="12" fill="#475569">every arrow above is enforced by a gate row or a red/green invariant — not by convention</text>
</svg>
